<svg width="196" height="44" viewBox="0 0 196 44" xmlns="http://www.w3.org/2000/svg" xmlns:xlink="http://www.w3.org/1999/xlink"><title>EBASABE Copy</title><defs><path id="a" d="M0 .009h195.7v43.81H0V.01z"/></defs><g fill="none" fill-rule="evenodd"><path d="M195.7 7.215c0 .914-.182 1.618-.363 2.35L194.614 11l-6.048 12.819-3.205-6.684-2.326-4.882-.543-1.253-.723-1.436c-.181-.732-.362-1.62-.362-2.35 0-.549 0-1.07.18-1.619.724-3.237 3.567-5.587 6.953-5.587a7.091 7.091 0 0 1 6.952 5.587c.207.365.207.888.207 1.619" fill="#007FF3"/><mask id="b" fill="#fff"><use xlink:href="#a"/></mask><path d="M6.435 30.295h14.99v-5.953H6.436v-6.84H23.21v-5.588H0v31.383h23.57V37.71H6.436v-7.415zm37.14-9.373c0 1.253-.724 1.984-1.603 2.715-1.06.731-2.506.731-4.109.731h-6.952v-7.415h7.314c1.602 0 3.024.366 3.928 1.07.88.732 1.422 1.646 1.422 2.899zm-12.69 9.007h8.219c1.964 0 3.566.366 4.47 1.07.905.706 1.422 1.62 1.422 2.899 0 1.253-.542 2.35-1.421 3.055-1.06.73-2.326 1.253-4.11 1.253h-8.58v-8.277zm20.004 4.517c0-1.253-.18-2.167-.362-3.054-.362-.914-.724-1.62-1.24-2.167-.543-.549-1.241-1.071-1.965-1.62-.542-.365-1.06-.548-1.783-.913.362-.183.724-.548 1.06-.731.542-.366 1.06-.914 1.421-1.436.362-.548.905-1.253 1.06-1.984.18-.731.543-1.62.543-2.533 0-2.167-.905-3.786-2.326-5.222-1.784-1.801-4.833-2.715-8.4-2.715H24.992v31.2h14.474c1.783 0 3.204-.183 4.652-.548 1.421-.366 2.687-.914 3.747-1.619s1.783-1.619 2.326-2.715c.517-1.227.698-2.507.698-3.943zm19.642-4.151h-9.459l4.652-11.175 4.807 11.175zm34.452 3.969c0-1.436-.362-2.533-.905-3.603-.362-1.071-1.24-1.802-2.145-2.716a14.298 14.298 0 0 0-3.205-1.984c-1.24-.548-2.688-.914-4.29-1.436-1.421-.366-2.688-.731-3.567-1.07a13.73 13.73 0 0 1-2.145-1.071c-.542-.366-.723-.731-.904-1.07-.181-.366-.181-.914-.181-1.436 0-.914.18-1.62 1.06-2.35.904-.731 1.964-.914 3.385-.914 1.422 0 2.688.183 3.929.731 1.24.548 2.687 1.253 4.109 2.35l.362.183 3.205-4.7-.181-.183c-1.603-1.253-3.386-2.35-5.17-2.898-1.783-.73-3.928-1.07-6.254-1.07-1.602 0-3.024.182-4.29.73-1.24.549-2.507 1.071-3.386 1.985-.904.731-1.421 1.801-1.964 2.898-.543 1.097-.543 2.35-.543 3.786s0 2.715.543 3.786c.543 1.07 1.06 1.984 1.964 2.715.905.731 1.964 1.253 3.205 1.801 1.24.549 2.688.914 4.471 1.254 1.422.365 2.507.73 3.386.913.904.366 1.602.731 1.964 1.07.543.366.905.732 1.06 1.071.155.34.361.914.361 1.254 0 1.07-.542 1.984-1.421 2.532-.905.731-2.145 1.07-3.748 1.07-1.783 0-3.566-.365-4.988-1.07-1.421-.73-3.024-1.619-4.47-2.898l-.363-.183-3.566 4.334L68.515 11.55h-5.53l-13.75 31.748h6.254l3.205-6.867h13.93l3.025 6.867h6.435l-1.964-4.7.18.183c1.784 1.619 3.93 3.055 6.074 3.786 2.146.914 4.471 1.253 6.953 1.253 1.602 0 3.205-.182 4.47-.548 1.422-.365 2.508-1.07 3.567-1.801 1.06-.914 1.965-1.802 2.507-3.055.776-1.436 1.112-2.69 1.112-4.151zm50.191-13.342c0 1.253-.724 1.984-1.783 2.715-1.06.731-2.688.731-4.29.731h-7.134v-7.415h7.495c1.603 0 3.205.366 4.11 1.07.904.706 1.602 1.646 1.602 2.899zm-13.207 9.007h8.4c1.964 0 3.747.366 4.652 1.07.905.732 1.602 1.62 1.602 2.899 0 1.253-.542 2.35-1.602 3.055-1.06.73-2.507 1.253-4.29 1.253h-8.762v-8.277zm-17.678.366h-9.46l4.653-11.175 4.807 11.175zm37.476 1.28c-.362-.914-.724-1.62-1.422-2.168-.543-.548-1.24-1.07-1.964-1.618-.543-.366-1.24-.549-1.784-.914.362-.183.724-.549 1.06-.731.543-.366 1.06-.914 1.422-1.436.361-.523.723-1.254 1.06-1.985.18-.73.361-1.618.361-2.532 0-2.167-.724-3.786-2.145-5.222-1.783-1.801-4.652-2.715-8.219-2.715h-13.75v31.383l-14.11-32.114h-5.532L103.02 43.297h6.254l3.205-6.867h13.93l3.024 6.867h20.909c1.783 0 3.205-.183 4.652-.548 1.422-.366 2.688-.914 3.748-1.619 1.06-.731 1.964-1.619 2.507-2.715a8.34 8.34 0 0 0 .904-3.786c.155-1.253-.026-2.35-.387-3.055zm7.856 6.475v-8.12h15.171v-4.883h-15.17V17.11h12.844l-2.326-4.882h-15.869v30.678h22.667v-4.883H169.62v.026z" fill="#FFF" mask="url(#b)"/></g></svg>