<?xml version="1.0" encoding="UTF-8"?>
<svg width="196px" height="44px" viewBox="0 0 196 44" version="1.1" xmlns="http://www.w3.org/2000/svg" xmlns:xlink="http://www.w3.org/1999/xlink" xmlns:sketch="http://www.bohemiancoding.com/sketch/ns">
    <!-- Generator: Sketch 3.4.4 (17249) - http://www.bohemiancoding.com/sketch -->
    <title>EBASABE Copy</title>
    <desc>Created with Sketch.</desc>
    <defs>
        <path id="path-1" d="M0,0.00868118467 L195.699137,0.00868118467 L195.699137,43.8193131 L0,43.8193131 L0,0.00868118467 Z"></path>
    </defs>
    <g id="Home" stroke="none" stroke-width="1" fill="none" fill-rule="evenodd" sketch:type="MSPage">
        <g id="Desktop-EBASABE" sketch:type="MSArtboardGroup" transform="translate(-150.000000, -4273.000000)">
            <g id="Footer" sketch:type="MSLayerGroup" transform="translate(0.000000, 4234.000000)">
                <g id="Egresado-en-la-carre-+-EBASABE-Copy" transform="translate(150.000000, 39.000000)">
                    <g id="EBASABE-Copy">
                        <path d="M195.699096,7.21475344 C195.699096,8.12862037 195.518224,8.83344989 195.337215,9.56459856 L194.613588,11.0005767 L188.565813,23.8199306 L185.360984,17.1361074 L183.035011,12.2536989 L182.492257,11.0005767 L181.76863,9.56459856 C181.587621,8.83344989 181.406749,7.94576431 181.406749,7.21475344 C181.406749,6.66646084 181.406749,6.14434959 181.587621,5.59605699 C182.311385,2.3585263 185.154331,0.00868118467 188.540032,0.00868118467 C191.925733,0.00868118467 194.794597,2.3585263 195.492307,5.59605699 C195.699096,5.96149353 195.699096,6.48374258 195.699096,7.21475344" id="Fill-2" fill="#007FF3" sketch:type="MSShapeGroup"></path>
                        <mask id="mask-2" sketch:name="Clip 5" fill="white">
                            <use xlink:href="#path-1"></use>
                        </mask>
                        <g id="Clip-5"></g>
                        <path d="M6.43542358,30.2949644 L21.4256178,30.2949644 L21.4256178,24.342152 L6.43542358,24.342152 L6.43542358,17.5016541 L23.2088364,17.5016541 L23.2088364,11.9144161 L-1.36404696e-05,11.9144161 L-1.36404696e-05,43.2971743 L23.5707181,43.2971743 L23.5707181,37.7099363 L6.43542358,37.7099363 L6.43542358,30.2949644 Z" id="Fill-4" fill="#FFFFFF" sketch:type="MSShapeGroup" mask="url(#mask-2)"></path>
                        <path d="M43.5748352,20.9218893 C43.5748352,22.1751492 42.8512083,22.9061601 41.9724893,23.637171 C40.9127612,24.3681818 39.4655073,24.3681818 37.8630249,24.3681818 L30.9107503,24.3681818 L30.9107503,16.9533477 L38.2249066,16.9533477 C39.8272526,16.9533477 41.2487259,17.3189221 42.1533619,18.0237516 C43.0320809,18.7549003 43.5748352,19.6686294 43.5748352,20.9218893 L43.5748352,20.9218893 Z M30.8848334,29.9293763 L39.1036257,29.9293763 C41.0678533,29.9293763 42.6701993,30.2949506 43.5748352,30.9999179 C44.4794712,31.7048852 44.9963086,32.6186144 44.9963086,33.8979178 C44.9963086,35.1511778 44.4535543,36.247763 43.5748352,36.9527303 C42.5152435,37.6837411 41.2487259,38.2059902 39.4655073,38.2059902 L30.8848334,38.2059902 L30.8848334,29.9293763 L30.8848334,29.9293763 Z M50.8889915,34.4462104 L50.8889915,34.4462104 C50.8889915,33.1930883 50.7081189,32.2792214 50.5272463,31.3915358 C50.1653646,30.4776689 49.8034829,29.7728394 49.2866455,29.2245468 C48.7438912,28.6762542 48.0460448,28.1540051 47.3224179,27.6057125 C46.7796636,27.240276 46.2626898,27.0574199 45.5390629,26.6919834 C45.9009445,26.5091273 46.2626898,26.1436908 46.5986546,25.9608347 C47.1414089,25.5953982 47.6583827,25.0471056 48.0202643,24.5248565 C48.3820096,23.9765639 48.9247639,23.2717344 49.079856,22.5405858 C49.2607286,21.8095749 49.6226103,20.9218893 49.6226103,20.0080224 C49.6226103,17.8410333 48.7179743,16.2223369 47.296501,14.7863587 C45.5132824,12.9848062 42.4635462,12.0709392 38.8968361,12.0709392 L24.9921505,12.0709392 L24.9921505,43.2709792 L39.4655073,43.2709792 C41.2487259,43.2709792 42.6701993,43.0882609 44.1175895,42.7226866 C45.5390629,42.35725 46.8054441,41.8089574 47.8651722,41.1039901 C48.9247639,40.3990228 49.6483908,39.4852937 50.1911451,38.3887085 C50.7081189,37.1616299 50.8889915,35.8821886 50.8889915,34.4462104 L50.8889915,34.4462104 Z" id="Fill-7" fill="#FFFFFF" sketch:type="MSShapeGroup" mask="url(#mask-2)"></path>
                        <path d="M70.5312816,30.2949644 L61.072025,30.2949644 L65.7241072,19.1203506 L70.5312816,30.2949644 Z M104.982743,34.263506 L104.982743,34.263506 C104.982743,32.8275278 104.620998,31.7309426 104.078244,30.6605387 C103.716362,29.5899971 102.837643,28.8589862 101.933007,27.9451193 C101.028507,27.2141084 99.9687793,26.5091411 98.728315,25.9608485 C97.4877143,25.4125559 96.0404604,25.0471194 94.437978,24.5248703 C93.0165047,24.1594338 91.7501235,23.7938594 90.8714044,23.4544665 C89.9667685,23.0888921 89.268922,22.7234556 88.7261678,22.3839248 C88.1835499,22.0184883 88.0025408,21.652914 87.8216682,21.313521 C87.6407956,20.9479466 87.6407956,20.399654 87.6407956,19.8775428 C87.6407956,18.9636759 87.8216682,18.2588463 88.7003873,17.5276977 C89.6050232,16.7966868 90.6646149,16.6139685 92.0860883,16.6139685 C93.5075616,16.6139685 94.7739428,16.7966868 96.0145435,17.3449794 C97.2551443,17.893272 98.7023981,18.5982393 100.123871,19.6948245 L100.485753,19.8775428 L103.690581,15.1779904 L103.509572,14.9951343 C101.907226,13.7420122 100.123871,12.645427 98.3406528,12.0971344 C96.5572978,11.3661235 94.4121976,11.0265927 92.0860883,11.0265927 C90.4837423,11.0265927 89.0622689,11.2094488 87.7957513,11.7577414 C86.555287,12.306034 85.2887694,12.8281452 84.4100503,13.7420122 C83.5055508,14.473023 82.988577,15.5434269 82.4458227,16.6400121 C81.9030684,17.7365973 81.9030684,18.9898572 81.9030684,20.4258354 C81.9030684,21.8618136 81.9030684,23.141117 82.4458227,24.2116587 C82.988577,25.2820625 83.5055508,26.1959295 84.4100503,26.9269403 C85.3146863,27.6579512 86.374278,28.1800625 87.6148787,28.7283551 C88.8554794,29.2766477 90.3027332,29.642222 92.0860883,29.981615 C93.5075616,30.3471893 94.5930702,30.7126258 95.4717893,30.8954819 C96.3764252,31.2609184 97.0741352,31.6264928 97.4360169,31.9658857 C97.9787712,32.3314601 98.3406528,32.6968966 98.4956086,33.0364274 C98.6507007,33.3758204 98.8574902,33.9501565 98.8574902,34.2895495 C98.8574902,35.3600912 98.314736,36.2738203 97.4360169,36.8221129 C96.5313809,37.5532616 95.2909166,37.8926545 93.6884342,37.8926545 C91.9052156,37.8926545 90.1218606,37.5270802 88.7003873,36.8221129 C87.2789139,36.091102 85.6764315,35.2034164 84.2291777,33.924113 L83.867296,33.7412569 L80.3007224,38.0753728 L68.5153565,11.5488418 L62.9845553,11.5488418 L49.2349618,43.2971743 L55.48939,43.2971743 L58.6942183,36.430495 L72.6246845,36.430495 L75.6486402,43.2971743 L82.0840774,43.2971743 L80.1198498,38.5976219 L80.3007224,38.7803401 C82.0840774,40.3990366 84.2291777,41.8350148 86.374278,42.5661634 C88.5195146,43.4798926 90.8454875,43.8192855 93.326689,43.8192855 C94.929035,43.8192855 96.5315173,43.6365673 97.7978986,43.2709929 C99.2193719,42.9055564 100.30488,42.2005891 101.364472,41.4695782 C102.424064,40.5557113 103.3287,39.6680257 103.871454,38.4147658 C104.646778,36.9787876 104.982743,35.7256655 104.982743,34.263506 L104.982743,34.263506 Z" id="Fill-9" fill="#FFFFFF" sketch:type="MSShapeGroup" mask="url(#mask-2)"></path>
                        <path d="M155.173984,20.9218893 C155.173984,22.1751492 154.450357,22.9061601 153.390629,23.637171 C152.331037,24.3681818 150.702774,24.3681818 149.100428,24.3681818 L141.967145,24.3681818 L141.967145,16.9533477 L149.462173,16.9533477 C151.064656,16.9533477 152.667002,17.3189221 153.571638,18.0237516 C154.476137,18.7287189 155.173984,19.6686294 155.173984,20.9218893 L155.173984,20.9218893 Z M141.967145,29.9293763 L150.366809,29.9293763 C152.331037,29.9293763 154.114392,30.2949506 155.018892,30.9999179 C155.923528,31.7309288 156.621374,32.6186144 156.621374,33.8979178 C156.621374,35.1511778 156.07862,36.247763 155.018892,36.9527303 C153.9593,37.6837411 152.51191,38.2059902 150.728691,38.2059902 L141.967145,38.2059902 L141.967145,29.9293763 Z M124.289096,30.2949506 L114.829839,30.2949506 L119.481921,19.1203368 L124.289096,30.2949506 Z M161.764513,31.5742541 C161.402631,30.6605249 161.04075,29.9555576 160.34304,29.407265 C159.800285,28.8589724 159.102439,28.3368612 158.378812,27.7885686 C157.836058,27.4229943 157.138211,27.240276 156.595457,26.8747017 C156.957339,26.6919834 157.319084,26.3264091 157.655049,26.1436908 C158.197803,25.7781165 158.714777,25.2298239 159.076522,24.7077126 C159.438404,24.1854636 159.800285,23.4544527 160.13625,22.7234418 C160.317123,21.9922932 160.497995,21.1046076 160.497995,20.1908784 C160.497995,18.0237516 159.774369,16.4050551 158.352895,14.969077 C156.569677,13.1675244 153.700813,12.2537953 150.134239,12.2537953 L136.384646,12.2537953 L136.384646,43.6365535 L122.273171,11.5226466 L116.742369,11.5226466 L103.018556,43.2971605 L109.273121,43.2971605 L112.477949,36.4304812 L126.408416,36.4304812 L129.432235,43.2971605 L135.867672,43.2971605 L150.340893,43.2971605 C152.124248,43.2971605 153.545721,43.1144422 154.993111,42.7488679 C156.414584,42.3832936 157.680966,41.835001 158.740557,41.1301715 C159.800285,40.3990228 160.704785,39.5113372 161.247539,38.414752 C161.790294,37.3443482 162.152175,36.0650447 162.152175,34.6290665 C162.307267,33.3758066 162.126395,32.2792214 161.764513,31.5742541 L161.764513,31.5742541 Z" id="Fill-11" fill="#FFFFFF" sketch:type="MSShapeGroup" mask="url(#mask-2)"></path>
                        <path d="M169.621383,38.0492741 L169.621383,29.9294727 L184.79245,29.9294727 L184.79245,25.0470642 L169.621383,25.0470642 L169.621383,17.1099811 L182.466477,17.1099811 L180.140367,12.2277104 L164.271454,12.2277104 L164.271454,42.9055013 L186.937686,42.9055013 L186.937686,38.0232306 L169.621383,38.0232306 L169.621383,38.0492741 Z" id="Fill-1" fill="#FFFFFF" sketch:type="MSShapeGroup" mask="url(#mask-2)"></path>
                    </g>
                </g>
            </g>
        </g>
    </g>
</svg>